<svg width="194" height="48" viewBox="0 0 194 48" fill="none" xmlns="http://www.w3.org/2000/svg">
<g clip-path="url(#clip0_3_789)">
<g clip-path="url(#clip1_3_789)">
<path fill-rule="evenodd" clip-rule="evenodd" d="M9.49616 0.000573417C6.55533 0.212349 3.91186 1.76545 2.28871 4.23506C1.48145 5.4633 0.983883 6.85026 0.808783 8.3604C0.784473 8.57006 0.779297 39.4498 0.779297 39.4498L0.828469 39.806C1.21001 42.5694 2.66924 44.9189 4.95273 46.4464C6.20029 47.2809 7.54785 47.7675 9.17377 47.9706C9.45068 48.0052 39.958 48.0226 40.5828 47.943C43.8861 47.5217 46.7293 45.3745 48.0396 42.3113C48.4476 41.3573 48.6871 40.3698 48.7683 39.306C48.7859 39.0746 48.7746 8.5728 48.7396 8.3051C48.5938 7.18969 48.3152 6.23294 47.8634 5.29561C46.7239 2.93158 44.6212 1.13351 42.1114 0.377075C41.5938 0.221064 41.0324 0.105974 40.4069 0.0276481C40.1294 -0.00710216 9.62908 -0.00900446 9.49616 0.000573417ZM20.853 7.9751C20.5674 8.06997 20.3885 8.09496 19.9939 8.0951C19.7669 8.09519 19.5404 8.10864 19.4042 8.13016C19.2825 8.14936 19.0785 8.16482 18.9507 8.16451C18.7166 8.16393 18.2985 8.21698 17.9116 8.29634C17.5716 8.36609 16.9798 8.57437 16.6728 8.73235C16.5205 8.81072 16.3362 8.9057 16.2632 8.94342C16.1456 9.00413 16.109 9.01201 15.9424 9.01232C15.839 9.01252 15.5881 8.99615 15.3849 8.97598C15.0558 8.94328 15.0074 8.9332 14.9425 8.88382C14.825 8.79444 14.6478 8.71432 14.5678 8.71441C14.4226 8.71456 14.3628 8.77732 14.2158 9.08403C14.0292 9.47338 13.9265 9.59661 13.5645 9.86499C12.983 10.2963 12.7293 10.7601 12.6995 11.4461C12.6851 11.7798 12.6813 11.7973 12.6076 11.8674C12.5124 11.9581 11.6019 12.6392 11.4976 12.6979C11.4414 12.7294 11.3617 12.8082 11.2985 12.8946C11.2406 12.9739 11.1011 13.1482 10.9885 13.2821C10.6584 13.6745 10.5916 13.7834 10.4359 14.1825C10.3851 14.3127 10.2493 14.6014 10.1341 14.8239C9.73119 15.6026 9.7236 15.6197 9.7236 15.7544C9.7236 15.8401 9.74441 15.9289 9.79279 16.0497C9.96112 16.4701 10.003 16.8136 9.93878 17.2482C9.87209 17.6998 9.81051 17.8908 9.5827 18.3529C9.46727 18.587 9.37291 18.786 9.373 18.7953C9.37309 18.8045 9.40749 18.8354 9.44947 18.864C9.61515 18.9768 9.70464 19.1509 9.70464 19.3603C9.70464 19.5242 9.75136 19.7003 9.83203 19.8406C9.86351 19.8953 10.1488 20.2042 10.4661 20.5271C10.9279 20.9969 11.0579 21.1425 11.1183 21.257C11.2611 21.5281 11.4066 21.7563 11.49 21.8405C11.6036 21.9549 12.1137 22.3376 12.4298 22.5454C12.7167 22.7341 13.1744 23.0011 13.4713 23.1531C13.7152 23.278 13.8593 23.2873 14.0852 23.1928C14.5312 23.0064 14.5846 22.9994 15.5111 23.0062C16.3812 23.0125 16.3322 23.0201 17.0258 22.771C17.5057 22.5987 17.7567 22.5311 18.0869 22.485C18.6616 22.4049 18.7607 22.449 19.0275 22.9042C19.1509 23.1147 19.2191 23.1913 19.3374 23.2521C19.4178 23.2934 19.4456 23.2957 19.6581 23.2785C19.7861 23.2682 20.0202 23.2593 20.1784 23.2589C20.4328 23.2582 20.4787 23.264 20.5765 23.3091C20.7103 23.3707 20.797 23.4497 20.8603 23.5678C20.9555 23.7452 20.9065 24.1729 20.7045 24.9281C20.5784 25.3996 20.5986 25.6438 20.7876 25.9291C20.8242 25.9843 21.0286 26.2172 21.2419 26.4466C21.4552 26.676 21.6788 26.9283 21.7388 27.0074C21.9603 27.2991 22.2694 28.1486 22.3666 28.7328C22.398 28.9213 22.4236 29.0979 22.4236 29.125C22.4236 29.1522 22.4584 29.2786 22.501 29.4059C22.6205 29.7631 22.5999 29.9495 22.4117 30.2149C21.9961 30.8011 21.8017 31.4511 21.7667 32.3715C21.7477 32.8712 21.775 32.9548 22.1751 33.6248C22.5663 34.2797 22.7543 34.6851 22.8432 35.0652C22.8666 35.1652 22.9216 35.4959 22.9654 35.8C23.0566 36.4338 23.1709 36.9766 23.2484 37.1444C23.2777 37.2079 23.3681 37.3419 23.4493 37.442C23.6753 37.7207 23.8898 38.0646 24.0809 38.4544C24.4041 39.1138 24.4765 39.3562 24.4508 39.6917C24.4159 40.1455 24.5893 40.4886 24.9341 40.6482C25.1431 40.7449 25.3496 40.736 25.9194 40.606C26.4588 40.4829 26.8047 40.4342 27.1417 40.4339C27.4093 40.4336 27.8669 40.3718 28.1258 40.3009C28.3835 40.2304 28.5636 40.1262 28.8058 39.9076C29.2715 39.4873 29.753 38.9101 30.3318 38.0784C30.798 37.4084 30.8714 37.2267 30.8927 36.692C30.9046 36.3925 30.9126 36.3367 30.9513 36.2828C31.0075 36.2045 31.3768 36.0168 31.5139 35.9969C31.6671 35.9746 31.7711 35.9119 31.8345 35.8037C31.9651 35.5809 32.033 35.0637 31.9819 34.681C31.9679 34.5765 31.9268 34.3693 31.8905 34.2207C31.7548 33.6652 31.8232 33.4698 32.2382 33.2266C32.3601 33.1552 32.4066 33.1109 32.4843 32.9922C32.6281 32.7724 32.8318 32.6332 33.1708 32.5233C33.6322 32.3737 34.0125 32.0009 34.1719 31.542C34.2282 31.3798 34.2357 31.1287 34.203 30.5059C34.1884 30.2289 34.1923 30.1152 34.2243 29.8865C34.2732 29.5367 34.2603 29.4795 34.0828 29.2585C33.8507 28.9694 33.7683 28.7529 33.7301 28.3317C33.7127 28.1404 33.6929 28.0579 33.6237 27.8893C33.5549 27.7215 33.5388 27.6547 33.539 27.5383C33.5392 27.3969 33.5433 27.3872 33.7787 26.9632C34.0849 26.4115 34.1998 26.2399 34.4901 25.9009C35.1454 25.1356 35.7136 24.5994 36.4696 24.0325C36.9378 23.6814 37.2428 23.3626 37.4785 22.9781C38.1963 21.8069 38.6435 20.9166 38.7042 20.5374C38.7446 20.285 38.6971 20.0061 38.6007 19.9303C38.5148 19.8628 38.4226 19.874 38.1514 19.9851C37.9576 20.0644 37.8042 20.1056 37.4148 20.1828C36.3974 20.3845 35.9109 20.4652 35.7873 20.4526C35.5635 20.4298 35.4454 20.2986 35.3808 20.0005C35.358 19.8955 35.3239 19.7771 35.305 19.7372C35.2628 19.6483 34.6795 19.0763 34.1988 18.6526C33.7894 18.2917 33.6896 18.1622 33.6034 17.8796C33.4899 17.5074 33.3826 17.3232 33.1284 17.0646C32.8902 16.8221 32.8434 16.7153 32.82 16.3612C32.7854 15.8376 32.6599 15.5399 32.3183 15.1715C32.185 15.0278 32.1536 14.9775 32.0935 14.8112C32.055 14.705 32.0235 14.6089 32.0235 14.5978C32.0235 14.5326 31.9385 14.3499 31.8324 14.187C31.6458 13.9008 31.2936 13.1235 31.2936 12.998C31.2936 12.9805 31.3475 12.9446 31.4149 12.9172L31.5361 12.868L31.6288 12.5884C31.7114 12.3391 31.7214 12.286 31.7215 12.0987C31.7216 11.8755 31.7176 11.8558 31.5783 11.3891L31.4886 11.0888L31.1091 11.0627C30.8459 11.0446 30.6617 11.0192 30.5083 10.9799C30.341 10.937 30.2305 10.923 30.0549 10.9226C29.8076 10.922 29.6739 10.9519 29.3921 11.0707C29.1596 11.1687 29.0457 11.1524 27.8566 10.8513L26.8418 10.5942L26.7023 10.4638C26.5092 10.2831 26.3704 10.2318 26.1175 10.2475C25.8707 10.2629 25.5276 10.3709 25.4168 10.4682C25.3071 10.5646 25.2774 10.6487 25.2547 10.9285C25.2337 11.1874 25.1811 11.3474 25.1036 11.3889C25.0789 11.4021 25.0229 11.4129 24.9792 11.4129C24.8455 11.4129 23.736 10.9785 23.6073 10.8758C23.5604 10.8384 23.5205 10.7778 23.4977 10.7093C23.4214 10.4795 23.1951 10.3714 22.6031 10.2821C22.1135 10.2083 21.7649 10.0899 21.4301 9.88391L21.2474 9.77145L21.3001 9.71292C21.3291 9.68073 21.4158 9.58558 21.4927 9.50145C21.7266 9.24562 21.7518 9.11175 21.615 8.85076C21.5101 8.65044 21.5148 8.54462 21.6356 8.38958C21.7726 8.21373 21.7356 8.14482 21.4921 8.12275C21.3872 8.11324 21.3563 8.101 21.328 8.05772C21.2795 7.9837 21.1645 7.91801 21.0853 7.91907C21.0488 7.91958 20.9443 7.94477 20.853 7.9751ZM37.6751 30.2554C37.5711 30.3189 37.4831 30.4321 37.3344 30.6942C37.2587 30.8277 37.1525 30.9843 37.0986 31.0422C37.0446 31.1001 37.0003 31.1641 37 31.1844C36.9984 31.3066 36.8071 31.5659 36.6576 31.6486C36.6211 31.6688 36.4022 31.765 36.171 31.8625L35.7507 32.0397L35.647 32.2461C35.59 32.3596 35.5278 32.5208 35.5088 32.6044C35.4641 32.8009 35.4648 33.0981 35.5104 33.3282C35.5559 33.5571 35.536 33.6733 35.3999 33.9724C35.2223 34.363 35.1738 34.5947 35.21 34.8807C35.2387 35.1084 35.2791 35.2405 35.4261 35.5885C35.5219 35.8153 35.5752 35.9109 35.6512 35.9919C35.7646 36.1129 35.9878 36.2535 36.0666 36.2535C36.0957 36.2535 36.1975 36.2192 36.2927 36.1774C36.3878 36.1355 36.5284 36.0899 36.605 36.076C36.7735 36.0455 36.8428 36.0115 36.9448 35.9095C37.0904 35.764 37.1783 35.5315 37.3419 34.8599C37.3968 34.6349 37.5172 34.2069 37.6096 33.9088C37.8131 33.2521 37.9125 32.8712 37.9644 32.5484C37.9966 32.348 38.0226 32.2661 38.1118 32.0839L38.2202 31.8627L38.2114 31.354C38.2037 30.9053 38.197 30.8278 38.1544 30.6981C38.0729 30.45 37.8863 30.2145 37.7713 30.2149C37.7549 30.2149 37.7116 30.2332 37.6751 30.2554Z" fill="url(#paint0_linear_3_789)"/>
<path fill-rule="evenodd" clip-rule="evenodd" d="M73.5396 3.93163C72.9551 4.06153 72.4262 4.40639 72.0541 4.90023C71.8421 5.18152 71.7687 5.31935 71.3505 6.22148C70.6855 7.65587 60.5818 29.5023 60.5041 29.948C60.3597 30.7758 60.6193 31.5226 61.2697 32.1508C62.111 32.9633 63.3888 33.1853 64.3829 32.6917C64.9544 32.4079 65.3728 31.9427 65.6879 31.2409C66.1306 30.2547 74.106 12.9661 74.106 12.9661L74.1623 13.0774C74.255 13.2604 86.7953 40.3434 86.8851 40.5283C87.4459 41.6839 88.3412 42.3001 89.4593 42.3001C90.6691 42.3001 91.7118 41.5104 92.0113 40.3673C92.1366 39.8889 92.1237 39.2638 91.9781 38.7612C91.9008 38.4946 76.6979 5.72658 76.6297 5.58432C76.2182 4.72595 75.5997 4.18596 74.7724 3.96282C74.5028 3.89012 73.8058 3.87248 73.5396 3.93163ZM109.966 3.91567C108.938 3.9742 107.919 4.13524 106.854 4.40729C103.854 5.1735 101.48 6.69603 99.7551 8.95974C98.6054 10.4685 97.9216 12.047 97.6094 13.9129C97.4226 15.0296 97.3693 16.6308 97.5015 17.1563C97.7164 18.0102 98.4081 18.7294 99.2787 19.004C100.338 19.3382 101.592 18.9287 102.252 18.0331C102.637 17.5099 102.738 17.1312 102.779 16.0598C102.806 15.3576 102.857 14.9596 102.991 14.4044C103.259 13.2868 103.73 12.3989 104.447 11.6558C104.81 11.2793 105.03 11.0967 105.47 10.8076C106.277 10.2768 106.961 9.94264 107.824 9.65745C108.805 9.33277 109.728 9.19547 110.721 9.22651C111.974 9.2657 113.197 9.56291 114.488 10.1414C116.198 10.9082 117.363 12.1215 117.91 13.706C118.421 15.1818 118.511 16.8453 118.166 18.434C117.924 19.5529 117.608 20.2403 117.029 20.9054C116.598 21.401 115.854 21.9188 114.833 22.4339C113.661 23.0253 112.863 23.3208 110.785 23.9324C107.014 25.0425 104.998 25.8837 103.207 27.0943C102.419 27.6264 101.845 28.1067 101.16 28.8048C99.8302 30.1616 98.2388 33.6223 98.2388 33.6223C97.8271 34.8448 97.5836 36.1757 97.4792 37.7737C97.364 39.5362 97.382 40.0259 97.5821 40.5743C97.898 41.4399 98.6018 42.041 99.5468 42.2523L99.8184 42.313H111.225L111.435 42.2568C111.955 42.118 112.358 41.8789 112.727 41.4911C113.387 40.7985 113.614 39.8532 113.346 38.9259C113.087 38.0331 112.373 37.3442 111.449 37.0965C111.151 37.0165 102.932 36.9977 102.932 36.9977L102.949 36.8748C103.16 35.3745 103.732 34.02 104.61 32.9487C105.348 32.0473 106.357 31.3005 107.618 30.7225C108.854 30.1564 110.216 29.673 112.492 28.9924C114.701 28.3323 115.969 27.8611 117.262 27.2203C117.965 26.872 118.401 26.6228 118.959 26.2507C121.36 24.6483 122.833 22.425 123.418 19.5198C123.857 17.3399 123.777 14.6276 123.216 12.6441C122.367 9.6417 120.478 7.35503 117.461 5.67487C115.704 4.69644 113.777 4.10159 111.854 3.94353C111.383 3.90483 110.408 3.89045 109.966 3.91567ZM142.418 3.90553C139.107 4.07151 136.313 4.97154 134.206 6.55062C133.325 7.21122 132.508 8.03958 131.901 8.88708C130.946 10.2222 130.386 11.7038 130.183 13.4344C130.125 13.9295 130.105 14.9787 130.143 15.5431C130.223 16.7254 130.398 17.6202 130.717 18.4722C131.64 20.9392 133.684 22.8597 136.789 24.1786C138.174 24.7669 139.407 25.1555 142.418 25.9532C146.062 26.9183 147.621 27.4507 148.872 28.1569C149.342 28.4226 149.633 28.633 149.947 28.9338C150.453 29.4193 150.762 29.9602 150.919 30.6348C150.985 30.9167 151.011 31.6484 150.97 32.0291C150.804 33.5431 150.104 34.6731 148.795 35.5359C147.784 36.2023 146.338 36.6659 144.628 36.8717C144.228 36.9199 144.011 36.9294 143.272 36.931C142.714 36.9323 142.27 36.9205 142.056 36.8988C139.702 36.6588 137.76 36.0101 136.251 34.9595C135.838 34.6721 135.506 34.3914 135.047 33.9425C134.562 33.4678 134.396 33.3396 134.12 33.2251C133.379 32.9175 132.271 33.0627 131.474 33.572C131.289 33.6897 130.99 33.9777 130.855 34.1666C130.356 34.8656 130.242 35.9021 130.574 36.7132C130.738 37.1158 130.979 37.4401 131.455 37.9036C132.911 39.3187 134.471 40.307 136.445 41.0654C138.741 41.9477 141.016 42.3373 143.608 42.292C146.195 42.2468 148.259 41.7754 150.359 40.7499C152.108 39.8959 153.342 38.9166 154.34 37.5926C155.397 36.1884 156.023 34.6317 156.274 32.7817C156.353 32.2047 156.359 30.882 156.287 30.2986C156.143 29.1377 155.906 28.303 155.468 27.4146C154.814 26.0845 153.801 24.9747 152.35 23.9962C151.189 23.214 149.969 22.6539 147.981 21.9913C146.973 21.6554 146.163 21.4238 144.6 21.0247C142.96 20.606 142.348 20.4384 141.48 20.1697C138.769 19.3313 137.216 18.5457 136.385 17.5927C135.598 16.6909 135.324 15.5838 135.515 14.0811C135.616 13.2858 135.862 12.6074 136.281 11.9685C136.545 11.5664 137.078 11.0386 137.514 10.7479C138.614 10.0147 140.323 9.46341 142.056 9.28254C142.27 9.26026 142.788 9.2321 143.207 9.21994C143.895 9.2 143.995 9.19149 144.216 9.13337C144.517 9.05453 144.7 8.97476 144.946 8.81574C145.446 8.49251 145.9 7.84743 146.064 7.22676C146.124 6.99897 146.146 6.47719 146.105 6.2258C145.988 5.49788 145.523 4.75115 144.943 4.3575C144.652 4.15994 144.335 4.03033 143.957 3.95431C143.765 3.91583 142.815 3.88567 142.418 3.90553ZM189.985 3.90758C189.378 3.98331 188.862 4.24613 188.43 4.69895C188.115 5.03036 187.98 5.26959 187.68 6.03344C186.971 7.83801 176.921 32.4925 176.921 32.4925C176.921 32.4925 169.998 15.4118 169.934 15.2838C169.491 14.395 168.754 13.8818 167.818 13.8092C166.967 13.7433 165.996 14.1519 165.48 14.7926C165.067 15.3061 164.887 15.8674 164.917 16.5512C164.942 17.1548 174.435 40.5585 174.537 40.7611C174.693 41.0737 174.857 41.3062 175.086 41.5378C176.137 42.6006 177.799 42.5763 178.849 41.483C179.074 41.2481 179.301 40.9222 179.418 40.6641C179.505 40.4712 192.907 7.33617 192.978 7.07783C193.024 6.91079 193.071 6.81701 193.073 6.45021C193.106 6.45021 193.037 5.99816 193.037 5.99816L192.943 5.73273C192.82 5.38482 192.645 5.09686 192.39 4.82572C191.917 4.3215 191.323 4.01024 190.659 3.91787C190.469 3.89149 190.152 3.88665 189.985 3.90758Z" fill="url(#paint1_linear_3_789)"/>
<path d="M153.358 13.0826C154.847 13.0826 156.054 11.8757 156.054 10.387C156.054 8.89826 154.847 7.69141 153.358 7.69141C151.869 7.69141 150.663 8.89826 150.663 10.387C150.663 11.8757 151.869 13.0826 153.358 13.0826Z" fill="url(#paint2_linear_3_789)"/>
<path d="M121.098 42.3355C122.587 42.3355 123.793 41.1286 123.793 39.6399C123.793 38.1512 122.587 36.9443 121.098 36.9443C119.609 36.9443 118.402 38.1512 118.402 39.6399C118.402 41.1286 119.609 42.3355 121.098 42.3355Z" fill="url(#paint3_linear_3_789)"/>
<path d="M163.594 9.26566C165.082 9.26566 166.289 8.05881 166.289 6.57009C166.289 5.08136 165.082 3.87451 163.594 3.87451C162.105 3.87451 160.898 5.08136 160.898 6.57009C160.898 8.05881 162.105 9.26566 163.594 9.26566Z" fill="url(#paint4_linear_3_789)"/>
<path d="M58.8753 42.2559C60.364 42.2559 61.5708 41.049 61.5708 39.5603C61.5708 38.0716 60.364 36.8647 58.8753 36.8647C57.3865 36.8647 56.1797 38.0716 56.1797 39.5603C56.1797 41.049 57.3865 42.2559 58.8753 42.2559Z" fill="url(#paint5_linear_3_789)"/>
</g>
</g>
<defs>
<linearGradient id="paint0_linear_3_789" x1="0.944753" y1="136.335" x2="168.945" y2="136.335" gradientUnits="userSpaceOnUse">
<stop stop-color="#2D388A"/>
<stop offset="1" stop-color="#00AEEF"/>
</linearGradient>
<linearGradient id="paint1_linear_3_789" x1="-8.44882" y1="163.32" x2="187.998" y2="163.32" gradientUnits="userSpaceOnUse">
<stop stop-color="#2D388A"/>
<stop offset="1" stop-color="#00AEEF"/>
</linearGradient>
<linearGradient id="paint2_linear_3_789" x1="-8.44875" y1="163.32" x2="187.998" y2="163.32" gradientUnits="userSpaceOnUse">
<stop stop-color="#2D388A"/>
<stop offset="1" stop-color="#00AEEF"/>
</linearGradient>
<linearGradient id="paint3_linear_3_789" x1="-8.44925" y1="163.32" x2="187.998" y2="163.32" gradientUnits="userSpaceOnUse">
<stop stop-color="#2D388A"/>
<stop offset="1" stop-color="#00AEEF"/>
</linearGradient>
<linearGradient id="paint4_linear_3_789" x1="-8.44911" y1="163.32" x2="187.998" y2="163.32" gradientUnits="userSpaceOnUse">
<stop stop-color="#2D388A"/>
<stop offset="1" stop-color="#00AEEF"/>
</linearGradient>
<linearGradient id="paint5_linear_3_789" x1="-8.44889" y1="163.32" x2="187.998" y2="163.32" gradientUnits="userSpaceOnUse">
<stop stop-color="#2D388A"/>
<stop offset="1" stop-color="#00AEEF"/>
</linearGradient>
<clipPath id="clip0_3_789">
<rect width="192.44" height="48" fill="white" transform="translate(0.779785)"/>
</clipPath>
<clipPath id="clip1_3_789">
<rect width="192.442" height="48" fill="white" transform="translate(0.778809)"/>
</clipPath>
</defs>
</svg>
